<?xml version="1.0" encoding="utf-8"?>
<!-- Generator: Adobe Illustrator 18.1.0, SVG Export Plug-In . SVG Version: 6.00 Build 0)  -->
<svg version="1.1" id="Calque_2" xmlns="http://www.w3.org/2000/svg" xmlns:xlink="http://www.w3.org/1999/xlink" x="0px" y="0px"
	 viewBox="0 0 841.9 595.3" enable-background="new 0 0 841.9 595.3" xml:space="preserve">
<g id="V_1_">
	<path d="M356.2,129.6c2.8-3.5,8.8-9.9,20.8-22.8c7.5-8,13.7-14.6,18-19c-13.9,8.2-22.7,7.8-28.3,5.8
		c-9.1-3.3-9.7-11.2-19.3-13.3c-11.8-2.5-22.2,7-23.3,8c-2.7,2.6-8.1,7.7-7.5,14.5c0.5,5,4,8.3,4.5,8.8c7,6.2,18.3,2.7,21.3,1.8
		c9.4-2.9,14.9-9.7,17-12.8c0.2-0.6,0.2-0.8,0.3-0.8c0,0,0,0.1,0,0.3c0.1,0.3,0.4,0.4,0.5,0.5c0.4,0.5-8.3,13.5-23.5,16.3
		c-3.5,0.6-7.8,1.4-12.3-0.8c-5.7-2.7-10-9.3-9.4-15.8c0.4-4.3,2.7-7.2,4.6-9.5c8.4-10.1,23.9-14.9,35.5-11.3c2.2,0.7,5,1.6,8.2,3.8
		c6.9,4.8,6.8,10.3,17.8,8.2c14.3-2.8,19.3-9,19.3-9s1.6-2.4,2.5-2c0.2,0.1,0.3,0.2,0.3,0.3c0.6,1.1-2.3,4.2-3.5,5.5
		c-2.4,2.6-4.3,5.5-6.8,8c-8.1,8.2-19.9,34.8-39.3,57.8c-9.7,11.5-23.6,24.8-23.8,25l0,0c-1.7,1.2-3.7,2.8-3.4,3.5
		c0.5,1,5.9-0.5,7.6-1c31.1-8.8,65-53.7,65-53.8c4.9-6.5,26.1-35,41.8-43.3c2.7-1.4,9.5-4.9,15.3-2.3c0.6,0.3,4.7,2.1,5,5.8
		c0.3,3.6-3.4,7.2-6.3,7c-3.2-0.2-7.5-3.4-6.5-6.5c0.8-2.3-7.5-9.5-29.5,18.8s-57.2,68.7-82.3,75.4c-9.6,2.5-13.1,2.6-13.7,1.5
		c-0.7-1.3,1.8-3.9,2.7-4.8C336.7,165.7,336.5,154,356.2,129.6z"/>
</g>
<g id="B1_1_">
	<path d="M500.9,87.9c-20.5,7.1-37,24.2-37,24.3c-27.7,34.6-28.2,39.5-47,53.8c-21.3,16.2-45.6,22.5-51.8,16.3
		c-2-2.1-5.2-8.6-4.5-10.4c0-0.1,0.2-0.4,0.4-0.5c0.9-0.3,1.9,1.9,3.6,2.9c2.5,1.4,7.3,0.3,9-3c1.4-2.7,0.1-5.5,0-5.8
		c-1.7-3.6-6.8-5.2-10.5-4c-5,1.6-6.8,8.1-6.2,12.5c0.8,6,6.4,9.6,8,10.6c13.8,8.6,60.5-4.9,74.5-26.1c14-21.2,33.5-48.8,45.8-57.8
		c12.3-9,20.3-12.8,20.3-12.8c1.1-0.6,2.4-1.5,2.3-1.8C507.4,85.6,502.5,87.3,500.9,87.9z"/>
</g>
<g id="B2_1_">
	<path d="M452.4,99.6c-2.3,8-11.5,36.7-36,45.8c-3.8,1.4-16.9,6.3-23.8,0c-6.5-6-3.5-18.6-3-20.5
		c5.9-24.1,37.1-36.3,56-39.8c7.9-1.4,22.1-3.8,35.5,3.8c3.7,2.1,10.9,6.1,13.5,14.3c3.1,9.7-1.7,20.8-9.5,27
		c-10.9,8.6-24.2,4.9-25.5,4.5c0,0-5-0.5,0.3,1.8c3.5,1.5,9.8,1.2,13,5.2c2.3,3,2,7.5,1.5,10.3c-2.7,17.8-23.6,36.9-34.3,32.8
		c-2.3-0.9-4.8-3.2-5.5-6c-1.2-4.7,2.7-9.2,4-10.8c5.8-6.7,14.9-8.1,20.8-9c2-0.3,3.6-0.4,4.8-0.5c0.4-0.5,0.8-1.2,0.6-1.6
		c-0.4-0.7-2.5-0.2-3.4-0.1c-3.2,0.4-27.5,4.2-29.5,17.5c-0.1,0.9-0.9,5.9,2.3,9.3c8.2,8.7,37.7,1.1,47.8-17.3
		c1.6-2.9,6.2-11.3,2.5-19.5c-2.9-6.4-9.2-9-11.3-9.8c17.3-1.1,30.4-11.9,31.8-23.5c1.8-15.5-17.7-27.2-30.3-30.5
		c-8.3-2.2-15.4-1.1-25,0.3c-12.3,1.8-22.1,5.3-28.5,8c-2.8,1.1-29.6,11.6-33.5,35c-0.4,2.6-2.6,15.8,4.6,21.7
		c9.6,8,30.9-1.4,42.2-12.2c10.2-9.7,14.8-22.7,16.8-28.3c0.8-2.3,3.5-10.3,3-10.5C453.9,96.8,453.1,98.3,452.4,99.6z"/>
</g>
</svg>
